<svg width="48" height="48" viewBox="0 0 48 48" fill="none" xmlns="http://www.w3.org/2000/svg">
<path d="M23.1569 0.292095C22.9825 0.310455 22.2389 0.393074 21.5045 0.475693C18.8331 0.760273 15.3264 1.44877 13.5271 2.03629C11.6361 2.65134 9.75417 3.71621 8.62504 4.80863C6.72479 6.64462 5.3019 9.27926 4.55832 12.327C4.27375 13.4929 4.10851 13.9702 3.55771 15.237C2.77742 17.0363 2.87839 17.7432 4.10851 18.9641C4.48488 19.3405 4.797 19.726 4.797 19.8087C4.797 20.3778 2.6489 23.9764 1.21683 25.8032C0.546689 26.6569 0.207031 27.327 0.207031 27.7768C0.216211 28.5296 0.849627 29.3007 1.96958 29.8882C2.89675 30.3748 3.14461 30.5859 3.14461 30.9164C3.14461 31.0816 2.95183 31.5682 2.71316 32.0363C2.41022 32.633 2.29088 32.9911 2.2817 33.2756C2.27252 33.652 2.30924 33.7071 2.81414 34.1661C3.31903 34.6343 3.34657 34.6802 3.25477 34.8913C3.19051 35.0198 3.14461 35.3319 3.14461 35.5706C3.14461 36.1306 3.33739 36.3876 4.18195 36.9293L4.81536 37.3332L4.76028 37.9941C4.59504 39.9862 4.59504 40.1239 4.7511 40.7114C5.1642 42.3087 6.10055 43.1808 7.50509 43.2726C8.05588 43.3001 8.368 43.2542 9.70827 42.887C11.379 42.4464 12.4439 42.1251 13.9678 41.6018L14.9225 41.2714L15.1703 41.455C16.1618 42.1618 17.346 44.1722 17.9243 46.1459C18.0528 46.5866 18.2089 46.8987 18.365 47.0456L18.6036 47.2659L28.6832 47.22C38.5058 47.1832 38.7628 47.1741 38.9556 46.9997C39.4421 46.559 39.3136 46.0174 38.3681 44.5211C37.2389 42.731 36.4219 39.876 36.1006 36.5621C35.9629 35.1759 36.1006 33.5694 36.4678 32.1465C36.9635 30.2371 37.6061 28.9978 39.3136 26.6753C39.8552 25.9409 40.4519 25.0963 40.6447 24.7934C41.5535 23.3797 42.444 21.002 42.2604 20.4972C42.1227 20.1391 41.7646 19.9372 41.3883 20.0106C41.2138 20.0473 41.0302 20.1208 40.9752 20.185C40.9293 20.2493 40.7365 20.7358 40.5621 21.2683C40.0388 22.8839 39.5155 23.7928 37.8448 26.0418C36.2383 28.1899 35.4947 29.6496 34.9623 31.7242C34.6043 33.0829 34.5033 33.9458 34.5125 35.488C34.5217 38.5908 35.5039 42.731 36.7524 44.8883C36.9452 45.2371 37.092 45.54 37.0737 45.5676C37.0461 45.5859 33.0712 45.6227 28.2334 45.6594L19.439 45.7053L19.2646 45.1637C18.8882 43.9519 17.9151 42.1618 17.0706 41.152C16.8686 40.9133 16.7217 40.693 16.7493 40.6747C16.7676 40.6563 17.502 40.3809 18.3833 40.0688C19.2646 39.7567 20.2377 39.3803 20.5406 39.2242C22.395 38.2971 23.4231 37.0486 23.469 35.6991C23.4782 35.1116 23.2028 34.7536 22.7438 34.7536C22.3858 34.7536 21.9635 35.0657 21.9635 35.3136C21.9635 36.2867 21.2291 37.1496 19.8429 37.8105C18.2732 38.5633 10.4151 41.1612 8.2762 41.6386C7.23887 41.8681 6.66053 41.5468 6.35759 40.5645C6.13727 39.8485 6.12809 39.4721 6.32087 38.5908C6.46775 37.8931 6.44021 37.324 6.21989 36.8099C6.05466 36.406 5.49468 35.8093 5.1183 35.6349C4.7511 35.4605 4.72356 35.3503 4.9806 35.029C5.15502 34.8087 5.21928 34.3589 5.10912 34.0743C5.08158 34.0008 4.82454 33.7622 4.53996 33.551C4.24621 33.3399 3.99835 33.1471 3.97999 33.1379C3.96163 33.1196 4.09933 32.7983 4.29211 32.4219C5.1183 30.7879 4.71438 29.5394 3.08035 28.7132C2.4653 28.3919 1.76762 27.9054 1.76762 27.786C1.76762 27.7401 2.1899 27.1343 2.70398 26.4366C3.96163 24.7291 4.78782 23.4164 5.64156 21.7456C6.24743 20.5706 6.35759 20.2768 6.35759 19.9096C6.35759 19.2395 5.99958 18.5877 5.256 17.8717C4.48488 17.1373 4.4757 17.0363 4.94388 15.9806C5.47632 14.7964 5.77926 13.9151 6.07302 12.7401C6.58709 10.7113 7.14707 9.3527 8.0467 8.00325C9.96531 5.12992 12.1777 3.79883 16.6208 2.8533C19.9255 2.15562 23.4323 1.74253 25.3417 1.82515C25.966 1.85268 26.581 1.84351 26.7003 1.79761C26.9757 1.68745 27.1961 1.21009 27.1134 0.897972C27.0767 0.769451 26.939 0.576672 26.8013 0.475693C26.581 0.310455 26.3974 0.292095 25.0204 0.273735C24.1667 0.264557 23.3313 0.273735 23.1569 0.292095Z" fill="white"/>
<path d="M35.647 0.411427C35.1513 0.668465 34.9494 1.04484 34.7749 2.06382C34.6831 2.56871 34.5822 3.01853 34.5546 3.06443C34.5271 3.11033 34.3068 3.22967 34.0773 3.33983L33.6458 3.52343L32.838 2.98181C31.4977 2.09136 31.002 2.073 30.185 2.89919L29.7352 3.35819H28.5234C27.2107 3.35819 26.8343 3.44081 26.4396 3.80801C26.0632 4.14766 26.0265 4.23946 25.7786 5.48794C25.4665 7.02099 25.4665 7.03017 25.3563 7.03017C25.2921 7.03017 25.0075 7.14033 24.7137 7.26884L24.1721 7.5167L23.0338 6.76395C21.308 5.61646 20.9867 5.63482 19.6189 6.95673C18.6641 7.87472 18.4805 8.18684 18.4805 8.8478C18.4805 9.27007 18.5448 9.39859 19.2517 10.4726L20.0136 11.6293L19.7382 12.3086L19.4628 12.9788L18.1868 13.2266C16.8098 13.502 16.4701 13.6581 16.1213 14.1813C15.9285 14.4751 15.9102 14.5944 15.9102 15.8705C15.9102 17.1189 15.9285 17.275 16.1121 17.6055C16.4059 18.1287 16.7639 18.294 18.1684 18.5785C18.9763 18.7438 19.4536 18.8815 19.4995 18.9641C19.5362 19.0375 19.6739 19.3313 19.7933 19.6159L20.0228 20.1299L19.2517 21.305C18.5448 22.3699 18.4805 22.5076 18.4805 22.9206C18.4805 23.6 18.6458 23.8845 19.6005 24.8117C20.5185 25.7114 20.7572 25.849 21.3355 25.849C21.7761 25.849 22.0056 25.7297 23.2174 24.9219L24.1537 24.2976L24.778 24.5639C25.1268 24.7107 25.4389 24.8852 25.4757 24.9494C25.5124 25.0137 25.6501 25.6012 25.7786 26.253C26.1642 28.2175 26.4028 28.4194 28.4316 28.4194C30.5705 28.4194 30.644 28.346 31.2407 25.3809L31.3416 24.8668L31.9475 24.6098C32.278 24.4629 32.5993 24.3527 32.6544 24.3527C32.7095 24.3527 33.2694 24.6924 33.8845 25.0963C34.9218 25.7848 35.0595 25.849 35.4818 25.849C35.7297 25.849 36.0234 25.8031 36.1336 25.7481C36.2437 25.693 36.7578 25.2248 37.2811 24.7107C38.6948 23.3154 38.7131 23.04 37.5565 21.2866L36.8221 20.1667L37.0883 19.4965L37.3637 18.8356L38.6122 18.5785C39.9708 18.3123 40.3013 18.1746 40.595 17.8074L40.7878 17.5596L41.4947 18.0277C42.7248 18.8172 43.0461 18.7713 44.2119 17.6146C45.4145 16.4121 45.442 16.0724 44.469 14.622L43.9273 13.805L44.1201 13.3551C44.3313 12.8594 44.2854 12.8778 45.4237 12.6758C46.9384 12.4004 47.2138 12.0424 47.2138 10.4084C47.2138 8.77435 46.9659 8.4806 45.3227 8.15012C44.7811 8.03996 44.3313 7.93898 44.3221 7.9298C44.3129 7.91144 44.2119 7.70948 44.1109 7.47998L43.9273 7.04852L44.469 6.24069C45.442 4.78108 45.4145 4.38634 44.2395 3.21131C43.0644 2.04546 42.7248 2.00874 41.2835 2.94509L40.4022 3.52343L39.9708 3.33983C39.7413 3.23885 39.5393 3.13787 39.521 3.12869C39.5118 3.11951 39.4108 2.66969 39.3007 2.12808C38.9702 0.466507 38.6948 0.237007 37.024 0.237007C36.1703 0.237007 35.9041 0.273727 35.647 0.411427ZM37.8594 2.91755C37.9879 3.56015 38.144 4.12012 38.2358 4.23946C38.3276 4.34962 38.6213 4.51486 38.8876 4.60666C39.1446 4.68928 39.5577 4.85452 39.7964 4.97386C40.4298 5.29516 40.6409 5.25844 41.4763 4.70764C42.8258 3.79883 42.6146 3.84472 43.1103 4.34962L43.5418 4.78108L42.8992 5.74497C42.1832 6.81903 42.1464 6.99345 42.4769 7.6544C42.5963 7.89308 42.7615 8.30618 42.8441 8.56322C42.9359 8.82944 43.1012 9.12319 43.2113 9.21499C43.3307 9.30679 43.8906 9.46285 44.5332 9.59137L45.6532 9.80251V10.4176V11.0326L44.5516 11.2438C43.8723 11.3723 43.3582 11.5283 43.2297 11.6293C43.1012 11.7303 42.9359 12.0241 42.8441 12.2903C42.7615 12.5473 42.5963 12.9604 42.4769 13.1991C42.1373 13.8692 42.1832 14.0436 42.8992 15.1085L43.551 16.0632L43.1103 16.5039L42.6697 16.9353L41.8343 16.3753L40.9898 15.8154L40.953 15.1452C40.9163 14.6312 40.8521 14.3925 40.6776 14.1171L40.4481 13.7682L40.7511 13.4102C41.1275 12.9604 41.5681 12.0791 41.6966 11.5283C41.8527 10.8398 41.816 9.68317 41.614 9.03139C41.2743 7.91144 40.3839 6.83739 39.3466 6.27741C38.4469 5.78169 37.2811 5.62564 36.1152 5.83677C35.8306 5.88267 35.4451 5.94693 35.2615 5.97447C35.0412 6.01119 34.5087 6.29577 33.8019 6.76395L32.6911 7.49834L32.076 7.25048C31.7456 7.11279 31.4426 6.97509 31.3967 6.93837C31.36 6.91083 31.2223 6.33249 31.0846 5.66235L30.8459 4.4506L31.1121 4.1752L31.3784 3.90899L32.3423 4.55158C33.4163 5.26762 33.5907 5.30434 34.2517 4.97386C34.4904 4.85452 34.9035 4.68928 35.1605 4.60666C35.4267 4.51486 35.7205 4.34962 35.8215 4.2211C35.9224 4.09258 36.0785 3.57851 36.207 2.89919L36.4182 1.7976H37.0332H37.6483L37.8594 2.91755ZM29.6525 6.47937C29.9922 8.16848 30.0014 8.19602 30.8092 8.45306C31.0662 8.54486 31.5895 8.75599 31.9659 8.93041C32.4065 9.14155 32.7186 9.22417 32.8563 9.19663C32.9757 9.15991 33.6183 8.76517 34.2884 8.31536L35.5002 7.48916L36.1611 8.14094L36.8221 8.8019L35.9592 10.0963C35.4818 10.8031 35.0962 11.4824 35.0962 11.5926C35.0962 11.7028 35.2431 12.0791 35.4175 12.4372C35.592 12.786 35.7388 13.0981 35.7388 13.1256C35.7388 13.3643 36.1611 14.2089 36.3172 14.3007C36.4273 14.3558 37.1617 14.5394 37.942 14.6954L39.3649 14.98L39.3925 15.898L39.42 16.8252L37.9237 17.1189C36.8312 17.3392 36.3723 17.4678 36.2254 17.6055C36.1152 17.7156 35.9316 18.0736 35.8215 18.4041C35.7113 18.7346 35.5002 19.2487 35.3625 19.5332C35.2156 19.827 35.0962 20.1391 35.0962 20.2401C35.0962 20.3411 35.4726 20.9837 35.9224 21.663C36.3814 22.3515 36.7486 22.9482 36.7486 22.9849C36.7486 23.0216 36.4641 23.3337 36.1152 23.6826L35.4818 24.3068L34.2425 23.4714C33.3704 22.8839 32.9298 22.6361 32.737 22.6361C32.5809 22.6361 32.1128 22.8013 31.6905 22.9941C31.2682 23.1869 30.7908 23.3796 30.6348 23.4072C30.084 23.5265 29.9555 23.7836 29.6434 25.3625L29.3496 26.8129L28.4224 26.8405C27.5228 26.868 27.4952 26.8588 27.4493 26.6569C27.4218 26.5375 27.2933 25.8858 27.1556 25.2065C27.0179 24.5271 26.8526 23.8845 26.7884 23.7744C26.715 23.6642 26.3753 23.4806 25.9438 23.3246C25.5491 23.1869 25.035 22.9757 24.7963 22.8564C24.0895 22.4984 23.9426 22.5443 22.5473 23.4714L21.2988 24.3068L20.6562 23.6642L20.0044 23.0124L20.849 21.7456C21.3998 20.9194 21.6935 20.387 21.6935 20.2217C21.6935 20.084 21.5742 19.7352 21.4273 19.4414C21.2896 19.1569 21.0785 18.6336 20.9591 18.294C20.8398 17.9084 20.6837 17.6238 20.5552 17.532C20.4359 17.4586 19.7015 17.275 18.912 17.1097L17.4707 16.8252V15.898V14.9708L18.9579 14.6771C19.7933 14.5026 20.5093 14.3099 20.6011 14.2364C20.6837 14.1538 20.8673 13.7682 21.005 13.3827C21.1427 12.9971 21.3539 12.4922 21.4732 12.2719C21.8312 11.6293 21.7853 11.4733 20.8673 10.1054C20.4175 9.42613 20.0411 8.83862 20.0411 8.79272C20.0411 8.75599 20.3257 8.44388 20.6745 8.09504L21.308 7.4708L22.6023 8.35208C23.3184 8.83862 23.9793 9.23335 24.0803 9.23335C24.1813 9.23335 24.5485 9.09565 24.8881 8.92123C25.2278 8.75599 25.7327 8.54486 26.0081 8.45306C26.7425 8.22356 26.8618 8.04914 27.1005 6.83739C27.2198 6.25905 27.3484 5.58891 27.4034 5.35024L27.4952 4.9096L28.4224 4.93714L29.3496 4.96468L29.6525 6.47937ZM38.5663 7.68194C39.1813 7.98488 39.6587 8.4806 39.98 9.13237C40.1544 9.48121 40.1911 9.70153 40.1911 10.4267C40.1911 11.4733 39.9891 11.969 39.2915 12.6483C38.759 13.1807 38.5571 13.2358 37.8778 13.0706L37.3545 12.942L37.0791 12.2903L36.8129 11.6293L37.5565 10.5277C37.9787 9.89431 38.3276 9.27925 38.3643 9.09565C38.4469 8.64584 38.2725 8.1134 37.9328 7.71866C37.685 7.43408 37.6666 7.39736 37.8227 7.39736C37.9237 7.39736 38.2541 7.52588 38.5663 7.68194Z" fill="white"/>
<path d="M27.0238 10.6103C26.0599 10.8673 25.3071 11.2988 24.5635 12.0332C23.4711 13.1256 22.9571 14.3557 22.9571 15.9347C22.9479 18.9273 25.3806 21.3508 28.364 21.3508C29.3096 21.3508 29.9155 21.2223 30.7233 20.8551C32.9632 19.827 34.2667 17.2382 33.7619 14.8331C33.1101 11.7486 30.0348 9.82082 27.0238 10.6103ZM29.227 12.0883C31.2006 12.5014 32.596 14.5301 32.2563 16.4946C32.036 17.789 31.2282 18.8722 30.0623 19.4414C29.4748 19.726 29.383 19.7443 28.4283 19.7443C27.4828 19.7443 27.3818 19.726 26.8035 19.4506C25.7661 18.964 25.0042 18.1103 24.6645 17.0454C24.4075 16.2651 24.4993 15.0534 24.8573 14.2823C25.6651 12.584 27.4001 11.7119 29.227 12.0883Z" fill="white"/>
<path d="M28.0756 15.2185C27.3596 15.6041 27.6258 16.6689 28.4336 16.6689C28.8651 16.6689 29.2598 16.2099 29.1864 15.806C29.0854 15.2644 28.5254 14.9707 28.0756 15.2185Z" fill="white"/>
<path d="M15.6758 4.68004C13.0137 5.36854 11.3429 6.31407 10.122 7.82876C8.84596 9.41689 8.185 10.7572 7.64338 12.8961C7.53323 13.3184 7.47815 13.6947 7.52405 13.7315C7.56077 13.7682 7.84534 13.8416 8.14828 13.9059C8.45122 13.9701 8.77252 14.0436 8.86432 14.0619C8.97448 14.0987 9.02038 14.0619 9.02038 13.9334C9.02038 13.5938 9.58035 11.767 9.89247 11.0876C10.2964 10.2155 11.0767 9.04969 11.6642 8.44382C12.6373 7.43402 14.0785 6.69963 16.1073 6.19473C16.7315 6.03867 17.3099 5.84589 17.4108 5.76327C17.8423 5.36854 17.7505 4.71676 17.2272 4.49644C17.062 4.423 16.9059 4.36792 16.8968 4.36792C16.8784 4.3771 16.3368 4.5148 15.6758 4.68004Z" fill="white"/>
<path d="M6.81381 16.0541C6.24465 16.4948 6.44661 17.3118 7.15346 17.4587C7.55738 17.5413 8.01638 17.1374 8.01638 16.7059C8.01638 16.1092 7.2728 15.7053 6.81381 16.0541Z" fill="white"/>
</svg>
