<svg width="189" height="49" viewBox="0 0 189 49" fill="none" xmlns="http://www.w3.org/2000/svg">
<path d="M52.2312 34.0125H53.1166V39.9496H56.6059L56.4822 40.7113H52.2312V34.0125Z" fill="white"/>
<path d="M63.2331 37.3261C63.2331 39.1749 62.2045 40.8089 60.0953 40.8089C58.1227 40.8089 57.0226 39.2921 57.0226 37.3651C57.0226 35.4382 58.1423 33.9213 60.1669 33.9213C62.0548 33.9213 63.2266 35.334 63.2266 37.3261H63.2331ZM57.9665 37.3326C57.9665 38.7778 58.6956 40.0472 60.1408 40.0472C61.6902 40.0472 62.3152 38.7713 62.3152 37.3456C62.3152 35.9199 61.6121 34.683 60.1408 34.683C58.6696 34.683 57.9665 35.9134 57.9665 37.3391V37.3326Z" fill="white"/>
<path d="M70.0556 40.7113H69.372C69.3264 40.5876 69.2939 40.2881 69.2874 39.8064C69.0009 40.2751 68.4215 40.7959 67.2107 40.7959C65.2772 40.7959 64.2552 39.3311 64.2552 37.4302C64.2552 35.4317 65.3488 33.9213 67.3734 33.9213C68.9358 33.9213 69.9058 34.7676 70.0946 35.959H69.2093C68.9749 35.2103 68.4476 34.657 67.3539 34.657C65.8045 34.657 65.1926 35.9004 65.1926 37.3912C65.1926 38.7648 65.8045 40.0537 67.3149 40.0537C68.8252 40.0537 69.1897 39.0512 69.1897 37.925V37.8469H67.3018V37.0852H70.0556V40.7047V40.7113Z" fill="white"/>
<path d="M72.5684 34.0125V40.7113H71.6831V34.0125H72.5684Z" fill="white"/>
<path d="M79.6383 38.8168C79.3388 39.9496 78.4925 40.7959 76.9757 40.7959C74.9771 40.7959 73.9615 39.2725 73.9615 37.3781C73.9615 35.4837 74.9706 33.9148 77.0017 33.9148C78.5771 33.9148 79.4364 34.8197 79.6383 35.9329H78.7529C78.512 35.2038 78.0303 34.6505 76.9757 34.6505C75.4914 34.6505 74.899 35.998 74.899 37.3456C74.899 38.6932 75.4654 40.0472 77.0147 40.0472C78.0433 40.0472 78.499 39.4483 78.7464 38.8038H79.6383V38.8168Z" fill="white"/>
<path d="M83.7916 38.8429C83.9739 39.6501 84.5207 40.0863 85.4972 40.0863C86.5388 40.0863 86.949 39.598 86.949 38.9601C86.949 38.2895 86.6235 37.912 85.2824 37.593C83.707 37.2089 83.1602 36.6686 83.1602 35.7246C83.1602 34.7221 83.8893 33.9148 85.3801 33.9148C86.975 33.9148 87.6325 34.8392 87.7302 35.7116H86.8253C86.7016 35.1257 86.337 34.6309 85.354 34.6309C84.5338 34.6309 84.0846 34.9955 84.0846 35.6335C84.0846 36.2714 84.4622 36.5058 85.6339 36.7987C87.5414 37.261 87.8734 38.0031 87.8734 38.8689C87.8734 39.9431 87.0792 40.7959 85.4387 40.7959C83.7981 40.7959 83.03 39.8715 82.8867 38.8429H83.7916Z" fill="white"/>
<path d="M95.0669 37.3261C95.0669 39.1749 94.0384 40.8089 91.9291 40.8089C89.9566 40.8089 88.8629 39.2921 88.8629 37.3651C88.8629 35.4382 89.9826 33.9213 92.0072 33.9213C93.8951 33.9213 95.0669 35.334 95.0669 37.3261ZM89.7938 37.3326C89.7938 38.7778 90.523 40.0472 91.9682 40.0472C93.5176 40.0472 94.1425 38.7713 94.1425 37.3456C94.1425 35.9199 93.4394 34.683 91.9682 34.683C90.4969 34.683 89.7938 35.9134 89.7938 37.3391V37.3326Z" fill="white"/>
<path d="M96.4601 34.0125H97.3454V39.9496H100.841L100.718 40.7113H96.4666V34.0125H96.4601Z" fill="white"/>
<path d="M102.462 34.0125V38.0422C102.462 39.6176 103.328 40.0537 104.181 40.0537C105.183 40.0537 105.893 39.5915 105.893 38.0422V34.0125H106.785V37.9966C106.785 40.1709 105.581 40.7959 104.161 40.7959C102.742 40.7959 101.557 40.1254 101.557 38.0617V34.0125H102.462Z" fill="white"/>
<path d="M109.949 34.7742H107.794V34.0125H113.008V34.7742H110.841V40.7113H109.949V34.7742Z" fill="white"/>
<path d="M114.857 34.0125V40.7113H113.972V34.0125H114.857Z" fill="white"/>
<path d="M122.461 37.3261C122.461 39.1749 121.432 40.8089 119.323 40.8089C117.351 40.8089 116.25 39.2921 116.25 37.3651C116.25 35.4382 117.37 33.9213 119.395 33.9213C121.283 33.9213 122.454 35.334 122.454 37.3261H122.461ZM117.188 37.3326C117.188 38.7778 117.917 40.0472 119.362 40.0472C120.912 40.0472 121.537 38.7713 121.537 37.3456C121.537 35.9199 120.833 34.683 119.362 34.683C117.891 34.683 117.188 35.9134 117.188 37.3391V37.3326Z" fill="white"/>
<path d="M123.854 40.7113V34.0125H125.026C125.989 35.5814 128.073 38.908 128.45 39.6306H128.457C128.392 38.7778 128.398 37.7167 128.398 36.6295V34.0125H129.238V40.7113H128.131C127.246 39.2595 125.071 35.679 124.655 34.9304H124.635C124.681 35.6921 124.681 36.8248 124.681 38.0357V40.7113H123.848H123.854Z" fill="white"/>
<path d="M131.425 38.8429C131.607 39.6501 132.154 40.0863 133.131 40.0863C134.172 40.0863 134.583 39.598 134.583 38.9601C134.583 38.2895 134.257 37.912 132.916 37.593C131.341 37.2089 130.787 36.6686 130.787 35.7246C130.787 34.7221 131.516 33.9148 133.007 33.9148C134.602 33.9148 135.26 34.8392 135.357 35.7116H134.452C134.329 35.1257 133.964 34.6309 132.981 34.6309C132.161 34.6309 131.712 34.9955 131.712 35.6335C131.712 36.2714 132.089 36.5058 133.261 36.7987C135.168 37.261 135.5 38.0031 135.5 38.8689C135.5 39.9431 134.706 40.7959 133.066 40.7959C131.425 40.7959 130.657 39.8715 130.514 38.8429H131.419H131.425Z" fill="white"/>
<path d="M139.276 34.0125H141.815C143.117 34.0125 144.009 34.7416 144.009 35.9655C144.009 37.2675 143.065 37.9575 141.757 37.9575H140.168V40.7113H139.276V34.0125ZM140.175 37.2089H141.724C142.642 37.2089 143.098 36.7662 143.098 35.985C143.098 35.2038 142.538 34.7676 141.75 34.7676H140.175V37.2089Z" fill="white"/>
<path d="M147.16 40.7113L144.725 34.0125H145.676L146.847 37.3521C147.192 38.3351 147.537 39.3246 147.687 39.9431H147.707C147.85 39.3962 148.227 38.3546 148.579 37.3847L149.809 34.019H150.721L148.201 40.7178H147.153L147.16 40.7113Z" fill="white"/>
<path d="M153.598 34.7742H151.443V34.0125H156.658V34.7742H154.497V40.7113H153.598V34.7742Z" fill="white"/>
<path d="M156.586 40.7113V39.2856H157.472V40.7113H156.586Z" fill="white"/>
<path d="M158.839 34.0125H159.724V39.9496H163.213L163.09 40.7113H158.839V34.0125Z" fill="white"/>
<path d="M164.555 34.7742H162.4V34.0125H167.614V34.7742H165.446V40.7113H164.555V34.7742Z" fill="white"/>
<path d="M168.578 34.0125H170.967C172.848 34.0125 174.124 35.3015 174.124 37.2935C174.124 39.2856 172.881 40.7113 170.941 40.7113H168.584V34.0125H168.578ZM169.463 39.9626H170.869C172.445 39.9626 173.187 38.8234 173.187 37.313C173.187 35.9915 172.503 34.7742 170.869 34.7742H169.463V39.9626Z" fill="white"/>
<path d="M174.997 40.7113V39.2856H175.882V40.7113H174.997Z" fill="white"/>
<path d="M66.0389 9.14433L72.933 31.07H66.5467L65.8306 28.505H58.9365L58.2204 31.07H51.8341L58.7282 9.14433H66.0389ZM60.2515 23.616H64.5156L62.3998 15.8626L60.2515 23.616Z" fill="white"/>
<path d="M93.3939 16.8131C93.3939 20.3936 91.1544 23.9155 86.324 23.9155H81.7019V31.0765H75.6151V14.0398H74.1243L75.6151 9.14433H86.324C90.9201 9.14433 93.3939 13.0243 93.3939 16.8131ZM81.7019 19.02H84.5338C86.0831 19.02 86.8578 17.7961 86.8578 16.5462C86.8578 15.2963 86.0831 14.0398 84.5338 14.0398H81.7019V19.02Z" fill="white"/>
<path d="M114.102 16.8131C114.102 20.3936 111.863 23.9155 107.032 23.9155H102.41V31.0765H96.3234V14.0398H94.8326L96.3234 9.14433H107.032C111.628 9.14433 114.102 13.0243 114.102 16.8131ZM102.404 19.02H105.236C106.785 19.02 107.566 17.7961 107.566 16.5462C107.566 15.2963 106.791 14.0398 105.236 14.0398H102.404V19.02Z" fill="white"/>
<path d="M135.129 9.14433V31.07H129.043L123.105 20.2373V31.07H117.019V14.0333H115.528L117.019 9.13782H123.105L129.043 19.9704V9.14433H135.129Z" fill="#E05C14"/>
<path d="M158.455 31.07H152.075L148.078 23.0171H147.778L143.781 31.07H137.395L143.69 19.8533L137.694 9.14433H144.081L147.928 16.9042L151.775 9.14433H158.162L152.166 19.8533L158.461 31.07H158.455Z" fill="white"/>
<path d="M176.774 14.0398H171.045V31.0765H164.958V14.0398H158.962L160.453 9.14433H178.265L176.774 14.0398Z" fill="white"/>
<path fill-rule="evenodd" clip-rule="evenodd" d="M15.8664 29.0323C16.7778 29.5076 17.7218 29.9242 18.6267 30.432C19.5576 30.9593 20.5536 31.4085 21.4911 31.9228C23.3399 32.9318 25.1887 33.0555 27.0506 32.1962C28.8083 31.3824 29.915 29.9372 30.3642 28.0298C30.605 27.0012 30.4293 25.9726 30.3511 24.9506C30.3251 24.6576 30.3056 24.3582 30.286 24.0652C30.2405 23.4337 30.1884 22.8088 30.0973 22.1838L29.264 14.0073C29.251 13.6818 29.2119 13.3563 29.1663 13.0308L28.9124 10.5179C28.5609 -0.575089 22.7996 0.12148 22.793 0.12148C21.6668 0.0889298 20.6513 0.381879 19.7529 0.967778L6.04937 9.83438C4.84502 10.6286 3.61463 11.3903 2.44934 12.2431C1.81787 12.7053 1.24499 13.2912 0.847886 13.9812C0.183867 15.14 -0.115592 16.3704 0.0406473 17.7375C0.248967 19.5408 1.0497 20.9469 2.54699 21.943C4.00523 22.9129 5.62622 23.603 7.15606 24.4493" fill="#E05C14"/>
<path fill-rule="evenodd" clip-rule="evenodd" d="M29.5765 28.0623C29.5765 27.0338 29.5179 26.0052 29.5634 24.9701C29.609 23.9025 29.5504 22.8088 29.5765 21.7412C29.6285 19.6384 28.8929 17.9328 27.2784 16.6764C25.7486 15.4851 23.9583 15.1661 22.0574 15.6348C21.0354 15.8887 20.1956 16.5136 19.3232 17.054C19.0693 17.2102 18.8155 17.3664 18.5616 17.5162C18.0277 17.8417 17.4939 18.1737 16.9861 18.5382L10.0986 23.0171C9.81214 23.1799 9.54523 23.3621 9.27832 23.5509L7.15607 24.931C-2.56334 30.3083 0.698159 35.1127 0.698159 35.1192C1.18641 36.1412 1.90902 36.9029 2.83994 37.4367L16.9861 45.5677C18.2491 46.2708 19.486 47.0194 20.775 47.6639C21.478 48.0155 22.2527 48.2563 23.0535 48.2889C24.388 48.3475 25.6184 48.0545 26.7641 47.2863C28.268 46.2773 29.1598 44.9167 29.3616 43.133C29.5569 41.3948 29.4267 39.6371 29.4788 37.8924" fill="white"/>
<path fill-rule="evenodd" clip-rule="evenodd" d="M27.7537 14.7039C26.9529 14.6908 26.1522 14.7299 25.3515 14.6908C24.5247 14.6453 23.6719 14.6908 22.8386 14.6583C21.2046 14.5997 19.8701 15.1596 18.8806 16.403C17.9431 17.5813 17.6762 18.9679 18.0277 20.4522C18.2165 21.2464 18.6983 21.9039 19.1084 22.5874C19.2256 22.7827 19.3428 22.9846 19.4599 23.1799C19.7073 23.603 19.9612 24.0196 20.2476 24.4168L23.6719 29.807C23.7956 30.0284 23.9388 30.2432 24.082 30.4515L25.1366 32.105C29.2314 39.6892 32.9942 37.1959 33.0007 37.1959C33.7949 36.8248 34.4004 36.2714 34.817 35.5488L41.2489 24.6251C41.8087 23.6486 42.4011 22.6981 42.9089 21.6956C43.1888 21.1553 43.3841 20.5498 43.4167 19.9314C43.4753 18.8963 43.2539 17.9393 42.668 17.0409C41.8934 15.8626 40.8452 15.1596 39.4586 14.9903C38.1045 14.8275 36.744 14.9057 35.3834 14.8536" fill="white"/>
<path opacity="0.8" fill-rule="evenodd" clip-rule="evenodd" d="M27.2784 16.6699C25.7486 15.4785 23.9583 15.1595 22.0574 15.6283C21.0353 15.8822 20.1956 16.5071 19.3232 17.0474C19.0693 17.2037 18.8154 17.3599 18.5616 17.5097C18.0277 17.8352 17.4939 18.1672 16.9861 18.5317L10.0986 23.0106C9.81213 23.1733 9.54522 23.3556 9.27831 23.5444L7.58572 24.6446L15.8794 29.0193C16.7908 29.4945 17.7348 29.9112 18.6397 30.419" fill="#E05C14"/>
<path opacity="0.8" fill-rule="evenodd" clip-rule="evenodd" d="M25.3515 14.6908C24.5247 14.6453 23.6719 14.6908 22.8386 14.6583C21.2046 14.5997 19.8701 15.1596 18.8806 16.403C17.9431 17.5813 17.6762 18.9679 18.0277 20.4522C18.2165 21.2464 18.6983 21.9039 19.1084 22.5874C19.2256 22.7827 19.3428 22.9846 19.4599 23.1799C19.7073 23.603 19.9612 24.0196 20.2476 24.4168L23.6719 29.807C23.7956 30.0284 23.9388 30.2432 24.082 30.4515L25.1366 32.105C25.2473 32.3069 25.3515 32.4956 25.4621 32.6844C25.9895 32.5998 26.5168 32.4371 27.0441 32.1897C28.8018 31.3759 29.3161 26.5325 29.7718 24.6186C30.0126 23.5965 30.4293 25.9596 30.3511 24.9376C30.3251 24.6446 30.3056 24.3451 30.286 24.0522C30.2405 23.4207 30.1884 22.7958 30.0973 22.1708L29.3356 14.7299L27.7537 14.6973C26.9529 14.6843 26.1522 14.7234 25.3515 14.6843V14.6908Z" fill="#E05C14"/>
<path fill-rule="evenodd" clip-rule="evenodd" d="M29.5765 21.7412C29.6285 19.6384 28.8929 17.9328 27.2784 16.6764C25.7486 15.4851 23.9583 15.1661 22.0574 15.6348C21.0354 15.8887 20.1956 16.5136 19.3232 17.054C19.0693 17.2102 18.8154 17.3664 18.5616 17.5162C18.4183 17.6073 18.2686 17.6919 18.1254 17.7831C17.8455 18.6164 17.8194 19.5147 18.0408 20.4522C18.2295 21.2464 18.7113 21.9039 19.1214 22.5874C19.2386 22.7827 19.3558 22.9846 19.473 23.1799C19.7203 23.603 19.9742 24.0196 20.2607 24.4168L23.6849 29.807C23.8086 30.0284 23.9518 30.2432 24.095 30.4515L25.1497 32.105C26.7056 34.989 28.2159 36.4147 29.4918 37.0787L29.583 28.0558C29.583 27.0273 29.5244 25.9987 29.5699 24.9636C29.6155 23.896 29.5569 22.8023 29.583 21.7346L29.5765 21.7412Z" fill="#DFE1E1"/>
<path fill-rule="evenodd" clip-rule="evenodd" d="M33.3002 12.217C33.3002 13.1935 32.5125 13.9812 31.536 13.9812C30.5595 13.9812 29.7718 13.1935 29.7718 12.217C29.7718 11.2405 30.5595 10.4528 31.536 10.4528C32.5125 10.4528 33.3002 11.2405 33.3002 12.217Z" fill="#E05C14"/>
<path fill-rule="evenodd" clip-rule="evenodd" d="M33.2286 38.8429C33.8665 39.6631 33.7168 40.8479 32.8966 41.4859C32.0763 42.1239 30.898 41.9742 30.2535 41.1539C29.6155 40.3337 29.7653 39.1488 30.5855 38.5109C31.4058 37.8729 32.5906 38.0226 33.2286 38.8429Z" fill="white"/>
<path fill-rule="evenodd" clip-rule="evenodd" d="M33.6582 42.6642C34.0553 43.1785 33.9642 43.9142 33.4499 44.3113C32.9356 44.7084 32.2 44.6172 31.8029 44.103C31.4058 43.5887 31.4969 42.853 32.0112 42.4559C32.5255 42.0588 33.2611 42.15 33.6582 42.6642Z" fill="white"/>
<path fill-rule="evenodd" clip-rule="evenodd" d="M33.4499 20.667C33.0463 20.1202 32.4604 19.7751 31.9201 19.3845C31.7638 19.2739 31.6076 19.1567 31.4513 19.046C31.1193 18.8051 30.7873 18.5708 30.4423 18.356L26.0415 15.3549C25.8723 15.2247 25.6965 15.1075 25.5142 14.9968L24.1602 14.0724C18.5225 9.60654 16.4588 12.7574 16.4523 12.7574C15.9641 13.3042 15.6842 13.9292 15.606 14.6192L14.2715 25.1133C14.1608 26.0443 14.0241 26.9687 13.959 27.9061C13.9265 28.4139 13.972 28.9347 14.1543 29.4229C14.4538 30.2367 14.9355 30.8942 15.6776 31.389C16.6607 32.04 17.6957 32.2287 18.8155 31.9032C19.9026 31.5843 20.9247 31.07 21.9793 30.6663C22.2983 30.5427 22.4871 30.5557 22.6238 30.7965C22.6238 30.7965 22.6433 30.8421 22.6824 30.9137C22.7735 31.1416 22.8907 31.3434 23.0209 31.5387C23.6589 32.6259 25.0455 34.5137 26.9399 34.4552C26.9399 34.4552 25.1106 33.6935 25.8137 30.5231C25.9179 30.2106 26.0611 29.9047 26.2564 29.6052C26.6665 28.9737 27.2459 28.5376 27.9034 28.2642C28.5218 28.0103 29.1208 27.7173 29.7522 27.483C30.4032 27.2421 31.0412 26.9361 31.6857 26.6822C32.9551 26.1875 33.7949 25.3216 34.1465 24.0392C34.4785 22.8283 34.2246 21.6761 33.4629 20.654L33.4499 20.667Z" fill="#002F3E"/>
<path d="M188.98 12.842C188.98 15.1465 187.17 16.9498 184.82 16.9498C182.47 16.9498 180.634 15.14 180.634 12.842C180.634 10.544 182.49 8.77975 184.82 8.77975C187.151 8.77975 188.98 10.5895 188.98 12.842ZM181.676 12.842C181.676 14.6518 183.01 16.084 184.846 16.084C186.682 16.084 187.938 14.6453 187.938 12.868C187.938 11.0908 186.623 9.60001 184.82 9.60001C183.017 9.60001 181.676 11.0582 181.676 12.842ZM184.176 14.9708H183.238V10.9085C183.609 10.8369 184.13 10.7848 184.794 10.7848C185.562 10.7848 185.907 10.9085 186.207 11.0843C186.428 11.2601 186.604 11.579 186.604 11.9762C186.604 12.4188 186.259 12.7704 185.764 12.9201V12.9722C186.161 13.1219 186.382 13.4149 186.506 13.9617C186.63 14.5802 186.702 14.8275 186.806 14.9773H185.79C185.666 14.8275 185.595 14.4565 185.471 13.9877C185.399 13.5451 185.152 13.3433 184.631 13.3433H184.189V14.9773L184.176 14.9708ZM184.202 12.6727H184.644C185.165 12.6727 185.582 12.497 185.582 12.0803C185.582 11.7092 185.308 11.4619 184.716 11.4619C184.469 11.4619 184.293 11.4879 184.195 11.5139V12.6792L184.202 12.6727Z" fill="white"/>
</svg>
